name p5_grf_mean_speed_1.6
datacolumns 13
datarows 57
range 0.0000000000 0.5600000000
endheader
time	grf_x_l_mean	grf_x_l_var	grf_y_l_mean	grf_y_l_var	grf_z_l_mean	grf_z_l_var	grf_x_r_mean	grf_x_r_var	grf_y_r_mean	grf_y_r_var	grf_z_r_mean	grf_z_r_var
0.0000000000	203.2727861766	1.0000000000	747.9943696506	1.0000000000	0.0000000000	0.0000000000	8.9426512264	1.0000000000	11.6926090370	1.0000000000	0.0000000000	0.0000000000
0.0100000000	210.4318453477	1.0000000000	711.3153639925	1.0000000000	0.0000000000	0.0000000000	9.3352006954	1.0000000000	56.6893066984	1.0000000000	0.0000000000	0.0000000000
0.0200000000	211.1462010165	1.0000000000	657.1900482977	1.0000000000	0.0000000000	0.0000000000	6.0016148801	1.0000000000	130.4827114740	1.0000000000	0.0000000000	0.0000000000
0.0300000000	203.4444744550	1.0000000000	586.4361950014	1.0000000000	0.0000000000	0.0000000000	-5.1637983598	1.0000000000	234.8982406927	1.0000000000	0.0000000000	0.0000000000
0.0400000000	185.7857078656	1.0000000000	502.0757958039	1.0000000000	0.0000000000	0.0000000000	-28.6918922591	1.0000000000	363.2859664518	1.0000000000	0.0000000000	0.0000000000
0.0500000000	158.1140996889	1.0000000000	409.6076229896	1.0000000000	0.0000000000	0.0000000000	-63.4163193652	1.0000000000	499.5518216132	1.0000000000	0.0000000000	0.0000000000
0.0600000000	123.7897367306	1.0000000000	316.4391992728	1.0000000000	0.0000000000	0.0000000000	-101.3405530729	1.0000000000	622.9180852327	1.0000000000	0.0000000000	0.0000000000
0.0700000000	88.2683791711	1.0000000000	230.1238121445	1.0000000000	0.0000000000	0.0000000000	-134.1537299876	1.0000000000	717.5318296652	1.0000000000	0.0000000000	0.0000000000
0.0800000000	55.9094667979	1.0000000000	156.4355269514	1.0000000000	0.0000000000	0.0000000000	-157.2820713430	1.0000000000	780.3833058029	1.0000000000	0.0000000000	0.0000000000
0.0900000000	30.5277891007	1.0000000000	98.6116882762	1.0000000000	0.0000000000	0.0000000000	-170.9191773329	1.0000000000	820.2601102372	1.0000000000	0.0000000000	0.0000000000
0.1000000000	13.6974241222	1.0000000000	57.0046545034	1.0000000000	0.0000000000	0.0000000000	-176.1079008805	1.0000000000	848.5293395141	1.0000000000	0.0000000000	0.0000000000
0.1100000000	4.0456960589	1.0000000000	29.3385447411	1.0000000000	0.0000000000	0.0000000000	-172.9953266852	1.0000000000	870.4682274330	1.0000000000	0.0000000000	0.0000000000
0.1200000000	-0.2518298602	1.0000000000	11.9292128208	1.0000000000	0.0000000000	0.0000000000	-163.6327708917	1.0000000000	885.2722162393	1.0000000000	0.0000000000	0.0000000000
0.1300000000	-2.0440350410	1.0000000000	1.7680000781	1.0000000000	0.0000000000	0.0000000000	-150.2610256346	1.0000000000	891.1688837645	1.0000000000	0.0000000000	0.0000000000
0.1400000000	0.0000000000	1.0000000000	0.0000000000	1.0000000000	0.0000000000	0.0000000000	-135.2451841161	1.0000000000	887.9631048885	1.0000000000	0.0000000000	0.0000000000
0.1500000000	0.0000000000	1.0000000000	0.0000000000	1.0000000000	0.0000000000	0.0000000000	-120.5442763474	1.0000000000	875.9304254746	1.0000000000	0.0000000000	0.0000000000
0.1600000000	0.0000000000	1.0000000000	0.0000000000	1.0000000000	0.0000000000	0.0000000000	-107.0983214462	1.0000000000	855.0927900170	1.0000000000	0.0000000000	0.0000000000
0.1700000000	0.0000000000	1.0000000000	0.0000000000	1.0000000000	0.0000000000	0.0000000000	-95.4504397901	1.0000000000	826.5350521237	1.0000000000	0.0000000000	0.0000000000
0.1800000000	0.0000000000	1.0000000000	0.0000000000	1.0000000000	0.0000000000	0.0000000000	-84.8921035210	1.0000000000	792.5552954324	1.0000000000	0.0000000000	0.0000000000
0.1900000000	0.0000000000	1.0000000000	0.0000000000	1.0000000000	0.0000000000	0.0000000000	-75.1729795748	1.0000000000	755.3207141097	1.0000000000	0.0000000000	0.0000000000
0.2000000000	0.7537253123	1.0000000000	0.1179005020	1.0000000000	0.0000000000	0.0000000000	-66.3091331157	1.0000000000	716.0608121474	1.0000000000	0.0000000000	0.0000000000
0.2100000000	0.6887232521	1.0000000000	0.3332425374	1.0000000000	0.0000000000	0.0000000000	-58.3275661592	1.0000000000	676.2587264499	1.0000000000	0.0000000000	0.0000000000
0.2200000000	0.5865263665	1.0000000000	0.6910129910	1.0000000000	0.0000000000	0.0000000000	-51.3908308228	1.0000000000	638.2182532754	1.0000000000	0.0000000000	0.0000000000
0.2300000000	0.6414707975	1.0000000000	1.0842859076	1.0000000000	0.0000000000	0.0000000000	-44.9999053550	1.0000000000	603.3299869444	1.0000000000	0.0000000000	0.0000000000
0.2400000000	0.6923831008	1.0000000000	0.9357291262	1.0000000000	0.0000000000	0.0000000000	-39.3428754818	1.0000000000	571.3451239180	1.0000000000	0.0000000000	0.0000000000
0.2500000000	0.3327584193	1.0000000000	0.2875337152	1.0000000000	0.0000000000	0.0000000000	-34.2123271108	1.0000000000	542.1813662974	1.0000000000	0.0000000000	0.0000000000
0.2600000000	0.0000000000	1.0000000000	0.0000000000	1.0000000000	0.0000000000	0.0000000000	-29.1293237443	1.0000000000	517.4314933752	1.0000000000	0.0000000000	0.0000000000
0.2700000000	0.0000000000	1.0000000000	0.0000000000	1.0000000000	0.0000000000	0.0000000000	-24.3615108449	1.0000000000	499.0336376200	1.0000000000	0.0000000000	0.0000000000
0.2800000000	0.1768425441	1.0000000000	0.2478944248	1.0000000000	0.0000000000	0.0000000000	-19.6226244042	1.0000000000	486.8844415912	1.0000000000	0.0000000000	0.0000000000
0.2900000000	0.1755223832	1.0000000000	0.2393096531	1.0000000000	0.0000000000	0.0000000000	-14.5958604104	1.0000000000	479.0820499896	1.0000000000	0.0000000000	0.0000000000
0.3000000000	0.2015761762	1.0000000000	0.0733348753	1.0000000000	0.0000000000	0.0000000000	-9.0710786634	1.0000000000	474.3085662560	1.0000000000	0.0000000000	0.0000000000
0.3100000000	0.4520092624	1.0000000000	0.0400745150	1.0000000000	0.0000000000	0.0000000000	-3.3056650744	1.0000000000	472.7729300533	1.0000000000	0.0000000000	0.0000000000
0.3200000000	0.7929846226	1.0000000000	0.1139809509	1.0000000000	0.0000000000	0.0000000000	2.2329439995	1.0000000000	474.9184230986	1.0000000000	0.0000000000	0.0000000000
0.3300000000	0.7743446552	1.0000000000	0.1299727288	1.0000000000	0.0000000000	0.0000000000	8.0641025357	1.0000000000	480.1611634149	1.0000000000	0.0000000000	0.0000000000
0.3400000000	0.5704041412	1.0000000000	0.1829462797	1.0000000000	0.0000000000	0.0000000000	14.4544515712	1.0000000000	487.2643499331	1.0000000000	0.0000000000	0.0000000000
0.3500000000	0.3931236333	1.0000000000	0.4060851576	1.0000000000	0.0000000000	0.0000000000	21.0718034088	1.0000000000	495.5981571810	1.0000000000	0.0000000000	0.0000000000
0.3600000000	0.1960696443	1.0000000000	0.6259183328	1.0000000000	0.0000000000	0.0000000000	27.7728062064	1.0000000000	505.5472590629	1.0000000000	0.0000000000	0.0000000000
0.3700000000	0.0254382308	1.0000000000	0.6301674616	1.0000000000	0.0000000000	0.0000000000	34.9016708343	1.0000000000	517.8112594795	1.0000000000	0.0000000000	0.0000000000
0.3800000000	-0.1400984084	1.0000000000	0.5819953426	1.0000000000	0.0000000000	0.0000000000	42.7571997524	1.0000000000	532.7700821560	1.0000000000	0.0000000000	0.0000000000
0.3900000000	-0.2641041718	1.0000000000	0.6849372317	1.0000000000	0.0000000000	0.0000000000	50.9877935752	1.0000000000	550.3571721717	1.0000000000	0.0000000000	0.0000000000
0.4000000000	-0.3657345525	1.0000000000	0.5641835230	1.0000000000	0.0000000000	0.0000000000	59.6610106205	1.0000000000	570.0682708645	1.0000000000	0.0000000000	0.0000000000
0.4100000000	0.0000000000	1.0000000000	0.0000000000	1.0000000000	0.0000000000	0.0000000000	69.4021454990	1.0000000000	591.2067931770	1.0000000000	0.0000000000	0.0000000000
0.4200000000	0.0000000000	1.0000000000	0.0000000000	1.0000000000	0.0000000000	0.0000000000	80.5502137857	1.0000000000	613.2894613212	1.0000000000	0.0000000000	0.0000000000
0.4300000000	0.0000000000	1.0000000000	0.0000000000	1.0000000000	0.0000000000	0.0000000000	93.0217122449	1.0000000000	635.9646391906	1.0000000000	0.0000000000	0.0000000000
0.4400000000	0.0000000000	1.0000000000	0.0000000000	1.0000000000	0.0000000000	0.0000000000	106.7294241579	1.0000000000	658.1966350583	1.0000000000	0.0000000000	0.0000000000
0.4500000000	0.0000000000	1.0000000000	0.0000000000	1.0000000000	0.0000000000	0.0000000000	121.8667798226	1.0000000000	677.6994644438	1.0000000000	0.0000000000	0.0000000000
0.4600000000	0.0000000000	1.0000000000	0.0000000000	1.0000000000	0.0000000000	0.0000000000	138.1016447971	1.0000000000	691.7132722942	1.0000000000	0.0000000000	0.0000000000
0.4700000000	0.0000000000	1.0000000000	0.0000000000	1.0000000000	0.0000000000	0.0000000000	154.5172457730	1.0000000000	698.0855805087	1.0000000000	0.0000000000	0.0000000000
0.4800000000	0.0000000000	1.0000000000	0.0000000000	1.0000000000	0.0000000000	0.0000000000	170.1910812269	1.0000000000	695.0164400210	1.0000000000	0.0000000000	0.0000000000
0.4900000000	7.4297542430	1.0000000000	12.9025533962	1.0000000000	0.0000000000	0.0000000000	183.7335878819	1.0000000000	680.0443578518	1.0000000000	0.0000000000	0.0000000000
0.5000000000	6.8573505980	1.0000000000	60.3369152591	1.0000000000	0.0000000000	0.0000000000	193.0740013050	1.0000000000	650.1551602825	1.0000000000	0.0000000000	0.0000000000
0.5100000000	2.2495614832	1.0000000000	137.7649805595	1.0000000000	0.0000000000	0.0000000000	195.8753060662	1.0000000000	603.3882683395	1.0000000000	0.0000000000	0.0000000000
0.5200000000	-9.6141880488	1.0000000000	247.1499297288	1.0000000000	0.0000000000	0.0000000000	190.2019213637	1.0000000000	540.3773302523	1.0000000000	0.0000000000	0.0000000000
0.5300000000	-32.2349524820	1.0000000000	381.3468649654	1.0000000000	0.0000000000	0.0000000000	174.8349733911	1.0000000000	464.5449807860	1.0000000000	0.0000000000	0.0000000000
0.5400000000	-65.2564660713	1.0000000000	523.6396851474	1.0000000000	0.0000000000	0.0000000000	149.7011446301	1.0000000000	381.3208361365	1.0000000000	0.0000000000	0.0000000000
0.5500000000	-102.2310558747	1.0000000000	653.4552787984	1.0000000000	0.0000000000	0.0000000000	117.7338865555	1.0000000000	297.1031757401	1.0000000000	0.0000000000	0.0000000000
0.5600000000	-135.0449432085	1.0000000000	754.9005503852	1.0000000000	0.0000000000	0.0000000000	84.6138855991	1.0000000000	218.2534615068	1.0000000000	0.0000000000	0.0000000000
